name GIL12_static.mot
datacolumns 141
datarows 4
range 0.00833333 0.03333334
endheader

                time	           pelvis_tx	           pelvis_ty	           pelvis_tz	         pelvis_tilt	         pelvis_list	     pelvis_rotation	       hip_flexion_r	     hip_adduction_r	      hip_rotation_r	        knee_angle_r	       ankle_angle_r	    subtalar_angle_r	         mtp_angle_r	       hip_flexion_l	     hip_adduction_l	      hip_rotation_l	        knee_angle_l	       ankle_angle_l	    subtalar_angle_l	         mtp_angle_l	    lumbar_extension	      lumbar_bending	     lumbar_rotation	    ground_marker_px	    ground_marker_py	    ground_marker_pz	    ground_marker_px	    ground_marker_py	    ground_marker_pz	    ground_marker_px	    ground_marker_py	    ground_marker_pz	    ground_marker_px	    ground_marker_py	    ground_marker_pz	    ground_marker_px	    ground_marker_py	    ground_marker_pz	    ground_marker_px	    ground_marker_py	    ground_marker_pz	    ground_marker_px	    ground_marker_py	    ground_marker_pz	    ground_marker_px	    ground_marker_py	    ground_marker_pz	    ground_marker_px	    ground_marker_py	    ground_marker_pz	    ground_marker_px	    ground_marker_py	    ground_marker_pz	    ground_marker_px	    ground_marker_py	    ground_marker_pz	    ground_marker_px	    ground_marker_py	    ground_marker_pz	    ground_marker_px	    ground_marker_py	    ground_marker_pz	    ground_marker_px	    ground_marker_py	    ground_marker_pz	    ground_marker_px	    ground_marker_py	    ground_marker_pz	    ground_marker_px	    ground_marker_py	    ground_marker_pz	    ground_marker_px	    ground_marker_py	    ground_marker_pz	    ground_marker_px	    ground_marker_py	    ground_marker_pz	    ground_marker_px	    ground_marker_py	    ground_marker_pz	    ground_marker_px	    ground_marker_py	    ground_marker_pz	    ground_marker_px	    ground_marker_py	    ground_marker_pz	    ground_marker_px	    ground_marker_py	    ground_marker_pz	    ground_marker_px	    ground_marker_py	    ground_marker_pz	    ground_marker_px	    ground_marker_py	    ground_marker_pz	    ground_marker_px	    ground_marker_py	    ground_marker_pz	    ground_marker_px	    ground_marker_py	    ground_marker_pz	    ground_marker_px	    ground_marker_py	    ground_marker_pz	    ground_marker_px	    ground_marker_py	    ground_marker_pz	    ground_marker_px	    ground_marker_py	    ground_marker_pz	    ground_marker_px	    ground_marker_py	    ground_marker_pz	    ground_marker_px	    ground_marker_py	    ground_marker_pz	    ground_marker_px	    ground_marker_py	    ground_marker_pz	    ground_marker_px	    ground_marker_py	    ground_marker_pz	    ground_marker_px	    ground_marker_py	    ground_marker_pz	    ground_marker_px	    ground_marker_py	    ground_marker_pz	    ground_marker_px	    ground_marker_py	    ground_marker_pz	    ground_marker_px	    ground_marker_py	    ground_marker_pz	    ground_marker_px	    ground_marker_py	    ground_marker_pz	    ground_marker_px	    ground_marker_py	    ground_marker_pz	
          0.00833333	          1.46503437	          0.68494052	         -0.34975284	        -16.43892479	         -1.29541528	          4.47471619	         14.76849556	         -5.12759066	         -3.36962223	         -1.66691971	          2.01062775	          0.00000000	          0.00000000	         18.74595070	         -0.82801193	         -6.24423313	         -2.71985030	         -0.04725192	          0.00000000	          0.00000000	         22.90456200	         -2.09468913	         -3.20375156	          1.38821721	          0.63567591	         -0.33997303	          1.40618765	          0.64211160	         -0.28689647	          1.39686978	          0.64414757	         -0.40395349	          1.39913237	          0.34169784	         -0.26453999	          1.40817046	          0.34245718	         -0.41448033	          1.38399768	          0.05474381	         -0.24365927	          1.40368974	          0.05624081	         -0.43155086	          1.46503437	          0.68494052	         -0.34975284	          1.47187591	          0.68344563	         -0.26380539	          1.45819283	          0.68643540	         -0.43570027	          1.34670115	          0.75187957	         -0.29768586	          1.33843863	          0.75114274	         -0.38262698	          1.40019274	          0.34508601	         -0.21867718	          1.39915824	          0.34376404	         -0.46160856	          1.38837373	          0.34233418	         -0.31396994	          1.41453016	          0.33888113	         -0.37115344	          1.37893307	          0.05741276	         -0.21065205	          1.38953316	          0.05820332	         -0.46073982	          1.39218009	          0.05388366	         -0.27058470	          1.41280806	          0.05332001	         -0.39981616	          1.34557319	          0.03783783	         -0.25852251	          1.35176885	          0.03782330	         -0.42085230	          1.43136227	          1.02088571	         -0.33699399	          1.52007902	          0.91005450	         -0.34253049	          1.35333979	          1.04003084	         -0.34219232	          1.45053971	          1.01453173	         -0.30008867	          1.44878376	          1.01343107	         -0.38991761	          1.47497654	          0.04173447	         -0.22882976	          1.48813820	          0.03968990	         -0.45857498	          1.51586258	          0.43240660	         -0.30351454	          1.44808078	          0.42518869	         -0.51930672	          1.44710565	          0.48627970	         -0.25036076	          1.44577682	          0.48513848	         -0.43703958	          1.43525732	          0.39824116	         -0.24710593	          1.45487392	          0.40176821	         -0.42289767	          1.40764415	          0.14682856	         -0.14848602	          1.50020695	          0.16431469	         -0.41497681	          1.39644527	          0.20112039	         -0.21352953	          1.43488121	          0.21972136	         -0.42585114	
          0.01666667	          1.46510303	          0.68492979	         -0.34960681	        -16.46984100	         -1.25997996	          4.38437128	         14.81016350	         -5.11586857	         -3.29457307	         -1.66520369	          2.00473762	          0.00000000	          0.00000000	         18.74958992	         -0.84841442	         -6.29541349	         -2.70803022	         -0.03906189	          0.00000000	          0.00000000	         22.96362114	         -2.13447547	         -3.18760681	          1.38828468	          0.63568443	         -0.33999255	          1.40612912	          0.64214361	         -0.28684059	          1.39700902	          0.64415997	         -0.40391356	          1.39909756	          0.34174091	         -0.26451322	          1.40818584	          0.34246695	         -0.41446757	          1.38399315	          0.05476024	         -0.24365036	          1.40365934	          0.05624561	         -0.43154371	          1.46510303	          0.68492979	         -0.34960681	          1.47180521	          0.68344802	         -0.26357234	          1.45840085	          0.68641156	         -0.43564129	          1.34667873	          0.75193185	         -0.29775730	          1.33864450	          0.75119108	         -0.38268331	          1.40013957	          0.34512532	         -0.21864972	          1.39921069	          0.34378338	         -0.46160263	          1.39035439	          0.34137884	         -0.31376800	          1.41449249	          0.33883208	         -0.37121570	          1.37891555	          0.05742691	         -0.21064496	          1.38952625	          0.05821121	         -0.46074378	          1.39212835	          0.05391539	         -0.27059606	          1.41280019	          0.05331244	         -0.39981735	          1.34556806	          0.03784461	         -0.25851530	          1.35178041	          0.03782793	         -0.42085722	          1.43164635	          1.02090716	         -0.33699265	          1.52043462	          0.91012216	         -0.34230188	          1.35357535	          1.04001498	         -0.34235004	          1.45077181	          1.01459539	         -0.30005783	          1.44915175	          1.01341772	         -0.38987905	          1.47494698	          0.04174491	         -0.22881033	          1.48814893	          0.03967021	         -0.45859909	          1.51636672	          0.43258542	         -0.30317694	          1.44835258	          0.42518580	         -0.51922327	          1.44702113	          0.48632407	         -0.25035483	          1.44595993	          0.48513216	         -0.43692753	          1.43635643	          0.39796609	         -0.24694045	          1.45496976	          0.40172023	         -0.42283991	          1.40760744	          0.14683507	         -0.14847377	          1.50019324	          0.16431372	         -0.41495320	          1.39637768	          0.20114294	         -0.21352279	          1.43487072	          0.21978052	         -0.42584214	
          0.02500000	          1.46518302	          0.68491381	         -0.34946135	        -16.50392151	         -1.22300279	          4.29955101	         14.85152245	         -5.10958433	         -3.22248936	         -1.66034269	          1.99884510	          0.00000000	          0.00000000	         18.75439072	         -0.86443073	         -6.35060263	         -2.69182968	         -0.03312558	          0.00000000	          0.00000000	         23.03751564	         -2.17210984	         -3.15114808	          1.38835597	          0.63569450	         -0.34000847	          1.40608406	          0.64216954	         -0.28678414	          1.39715362	          0.64417481	         -0.40387192	          1.39906132	          0.34177890	         -0.26447704	          1.40819633	          0.34247589	         -0.41445237	          1.38398814	          0.05477337	         -0.24363759	          1.40363419	          0.05624579	         -0.43153849	          1.46518302	          0.68491381	         -0.34946135	          1.47175109	          0.68343908	         -0.26334891	          1.45861506	          0.68638855	         -0.43557379	          1.34667099	          0.75198990	         -0.29782760	          1.33886290	          0.75123847	         -0.38273615	          1.40008605	          0.34516084	         -0.21861297	          1.39925182	          0.34380174	         -0.46159297	          1.39129519	          0.34104466	         -0.31389830	          1.41443193	          0.33889598	         -0.37114513	          1.37889826	          0.05743708	         -0.21063381	          1.38952053	          0.05821435	         -0.46074772	          1.39209807	          0.05396345	         -0.27061042	          1.41276622	          0.05331225	         -0.39981043	          1.34556794	          0.03784989	         -0.25850660	          1.35179126	          0.03783447	         -0.42086267	          1.43191850	          1.02093923	         -0.33698550	          1.52079690	          0.91021818	         -0.34211394	          1.35381484	          1.03998816	         -0.34252635	          1.45100904	          1.01467061	         -0.30001351	          1.44948637	          1.01342249	         -0.38985899	          1.47492397	          0.04175078	         -0.22878784	          1.48815894	          0.03964222	         -0.45862466	          1.51693225	          0.43276080	         -0.30281785	          1.44862187	          0.42516860	         -0.51913345	          1.44695318	          0.48637187	         -0.25035179	          1.44612658	          0.48511773	         -0.43685666	          1.43666899	          0.39787212	         -0.24688852	          1.45504487	          0.40176117	         -0.42272699	          1.40756750	          0.14684257	         -0.14845447	          1.50018108	          0.16431187	         -0.41493303	          1.39630818	          0.20118509	         -0.21351390	          1.43486416	          0.21984006	         -0.42585167	
          0.03333334	          1.46528006	          0.68488824	         -0.34932613	        -16.54122543	         -1.18251812	          4.22121716	         14.89138794	         -5.11166048	         -3.15230322	         -1.65116000	          1.99286819	          0.00000000	          0.00000000	         18.75886917	         -0.87230456	         -6.40735674	         -2.66945338	         -0.02978656	          0.00000000	          0.00000000	         23.10229111	         -2.21502805	         -3.11310768	          1.38843703	          0.63570112	         -0.34003037	          1.40605819	          0.64218277	         -0.28673857	          1.39730906	          0.64418977	         -0.40384001	          1.39902318	          0.34180117	         -0.26443836	          1.40820086	          0.34248179	         -0.41443723	          1.38398361	          0.05477948	         -0.24362703	          1.40361536	          0.05623804	         -0.43153471	          1.46528006	          0.68488824	         -0.34932613	          1.47171915	          0.68341112	         -0.26314405	          1.45884097	          0.68636531	         -0.43550822	          1.34667659	          0.75204885	         -0.29789647	          1.33910108	          0.75128388	         -0.38278800	          1.40003312	          0.34518251	         -0.21857391	          1.39928269	          0.34381577	         -0.46158263	          1.39164889	          0.34099674	         -0.31407550	          1.41434336	          0.33897045	         -0.37098098	          1.37888300	          0.05743967	         -0.21062465	          1.38951826	          0.05820902	         -0.46075180	          1.39209628	          0.05400066	         -0.27058896	          1.41273534	          0.05332729	         -0.39979541	          1.34557247	          0.03785303	         -0.25849944	          1.35180271	          0.03784326	         -0.42086920	          1.43221152	          1.02095985	         -0.33691919	          1.52115595	          0.91028392	         -0.34187457	          1.35406852	          1.03996813	         -0.34268892	          1.45126903	          1.01473022	         -0.29992482	          1.44983590	          1.01341224	         -0.38976818	          1.47491038	          0.04174961	         -0.22876704	          1.48817182	          0.03960393	         -0.45865640	          1.51748240	          0.43290982	         -0.30248576	          1.44888771	          0.42513657	         -0.51904136	          1.44687665	          0.48638976	         -0.25027743	          1.44629419	          0.48508811	         -0.43674314	          1.43659556	          0.39786583	         -0.24682383	          1.45510805	          0.40178379	         -0.42253816	          1.40752804	          0.14684838	         -0.14843388	          1.50017262	          0.16430920	         -0.41492048	          1.39623523	          0.20121686	         -0.21347921	          1.43484223	          0.21986602	         -0.42581308	
